<svg width="1800" height="456" viewBox="0 0 1800 456" fill="none" xmlns="http://www.w3.org/2000/svg">
<mask id="mask0_1014_317" style="mask-type:luminance" maskUnits="userSpaceOnUse" x="0" y="0" width="1800" height="454">
<path d="M0 0H1800V453.333H0V0Z" fill="white"/>
</mask>
<g mask="url(#mask0_1014_317)">
<path d="M447.422 125.99V144.336C465.136 119.727 495.635 103.975 529.086 103.975C595.504 103.975 646.67 158.612 646.67 230.469C646.67 301.344 595.504 356.964 529.086 356.964C495.635 356.964 465.136 342.688 447.422 318.079V437.323C447.422 446.219 440.213 453.431 431.321 453.431H406.945C398.053 453.431 390.844 446.219 390.844 437.323V125.99C390.844 117.094 398.053 109.882 406.945 109.882H431.321C440.213 109.882 447.422 117.094 447.422 125.99ZM517.285 155.658C476.448 155.658 444.963 188.631 444.963 230.469C444.963 272.308 476.448 305.281 517.285 305.281C558.113 305.281 589.603 272.308 589.603 230.469C589.603 188.631 558.113 155.658 517.285 155.658ZM929.05 230.469C929.05 301.344 874.438 356.964 800.643 356.964C726.849 356.964 672.242 301.344 672.242 230.469C672.242 159.595 726.849 103.975 800.643 103.975C874.438 103.975 929.05 159.595 929.05 230.469ZM728.819 230.469C728.819 271.814 760.305 304.791 800.643 304.791C840.987 304.791 872.472 271.814 872.472 230.469C872.472 189.124 840.987 156.147 800.643 156.147C760.305 156.147 728.819 189.124 728.819 230.469ZM1095.33 151.758C1095.33 157.984 1090.14 162.884 1083.92 162.619C1082.86 162.573 1081.74 162.549 1080.57 162.549C1038.75 162.549 1013.17 195.032 1013.17 244.745V334.948C1013.17 343.844 1005.96 351.056 997.068 351.056H972.692C963.8 351.056 956.591 343.844 956.591 334.948V125.99C956.591 117.094 963.8 109.882 972.692 109.882H996.575C1005.47 109.882 1012.68 117.094 1012.68 125.99V151.227C1024.48 123.175 1053.02 104.962 1084.5 104.962C1084.55 104.962 1084.61 104.962 1084.66 104.963C1090.59 104.984 1095.33 109.917 1095.33 115.845V151.758ZM1217.18 54.6221V109.882H1265.03C1273.92 109.882 1281.13 117.094 1281.13 125.99V142.01C1281.13 150.906 1273.92 158.118 1265.03 158.118H1217.18V266.4C1217.18 292.976 1228.98 304.791 1254.57 304.791C1258.12 304.791 1261.92 304.394 1265.66 303.6C1273.64 301.908 1281.13 308.043 1281.13 316.201V339.619C1281.13 345.06 1277.76 349.968 1272.63 351.762C1263.82 354.839 1252.29 356.964 1237.84 356.964C1189.63 356.964 1160.6 326.936 1160.6 276.734V158.118H1140.79C1131.9 158.118 1124.69 150.906 1124.69 142.01V125.99C1124.69 117.094 1131.9 109.882 1140.79 109.882H1160.6V54.6221C1160.6 45.7259 1167.81 38.5142 1176.7 38.5142H1201.08C1209.97 38.5142 1217.18 45.7259 1217.18 54.6221ZM1497.81 109.882H1522.67C1531.56 109.882 1538.77 117.094 1538.77 125.99V334.948C1538.77 343.844 1531.56 351.056 1522.67 351.056H1497.81C1488.91 351.056 1481.71 343.844 1481.71 334.948V319.062C1466.94 341.705 1441.86 356.964 1408.4 356.964C1351.33 356.964 1316.4 317.585 1316.4 255.079V125.99C1316.4 117.094 1323.61 109.882 1332.5 109.882H1357.37C1366.26 109.882 1373.47 117.094 1373.47 125.99V244.251C1373.47 281.659 1392.66 304.297 1425.62 304.297C1459.56 304.297 1481.71 278.211 1481.71 236.871V125.99C1481.71 117.094 1488.91 109.882 1497.81 109.882ZM1616.64 351.056H1591.77C1582.87 351.056 1575.66 343.844 1575.66 334.948V125.99C1575.66 117.094 1582.87 109.882 1591.77 109.882H1616.64C1625.53 109.882 1632.74 117.094 1632.74 125.99V141.876C1647.49 119.233 1672.59 103.975 1706.53 103.975C1765.07 103.975 1800 143.353 1800 205.86V334.948C1800 343.844 1792.79 351.056 1783.9 351.056H1759.03C1750.14 351.056 1742.93 343.844 1742.93 334.948V216.688C1742.93 179.28 1723.75 156.641 1689.31 156.641C1655.36 156.641 1632.74 182.727 1632.74 224.072V334.948C1632.74 343.844 1625.53 351.056 1616.64 351.056Z" fill="#F2F5F8"/>
<path d="M78.4128 254.001C78.4128 270.038 65.4184 283.038 49.3893 283.038C38.1584 283.008 29.2639 276.821 24.52 268.987C20.7469 262.589 16.9231 255.095 13.6352 247.177C10.8098 240.317 8.29516 233.131 6.36758 226.042C2.177 210.768 -0.0251477 194.73 0.000216659 178.598C-0.0124655 165.822 1.3622 153.137 3.97545 140.941C6.59993 128.68 10.6558 116.4 15.6692 105.344C18.0412 99.9158 22.2258 95.2506 27.5487 92.1057C31.8401 89.5839 36.9865 88.1585 42.1659 88.1598C58.1951 88.1598 71.1893 101.16 71.1893 117.197C71.1893 121.446 70.3083 125.412 68.669 129.049L68.593 129.216C61.8303 144.311 58.0471 160.962 58.0471 178.598C58.09 200.778 63.969 221.334 74.3888 239.248L74.6569 239.705C77.0598 244.006 78.4127 248.71 78.4128 254.001ZM178.516 0C178.49 0 178.465 0.00190838 178.439 0.00190838V0.00954126C162.416 0.016411 149.428 13.0135 149.428 29.0459C149.428 45.0824 162.422 58.0826 178.451 58.0826C178.5 58.0826 178.546 58.0755 178.594 58.0753C245.091 58.1177 298.984 112.06 298.984 178.598C298.984 245.161 245.049 299.122 178.516 299.122C162.529 299.122 147.307 296.03 133.354 290.365C128.149 288.254 123.331 285.914 118.548 283.152L118.049 282.863C113.793 280.526 109.208 279.197 103.88 279.177C87.8503 279.177 74.8562 292.177 74.8562 308.214C74.8771 312.782 75.8684 316.886 77.6262 320.618C80.0627 325.767 84.008 330.188 89.122 333.222L89.5227 333.455C90.0036 333.733 90.6721 334.112 91.1558 334.385C99.4572 339.035 108.051 343.04 117.376 346.446C136.298 353.358 157.034 357.195 178.516 357.195C277.107 357.195 357.031 277.234 357.031 178.598C357.031 79.9608 277.107 0 178.516 0Z" fill="#F2F5F8"/>
<path d="M97.2998 90.0774C117.749 90.0774 134.326 73.4924 134.326 53.0338C134.326 32.5752 117.749 15.9902 97.2998 15.9902C76.8506 15.9902 60.2732 32.5752 60.2732 53.0338C60.2732 73.4924 76.8506 90.0774 97.2998 90.0774Z" fill="#F2F5F8"/>
</g>
</svg>
