<?xml version="1.0" encoding="utf-8"?>
<!-- Generator: Adobe Illustrator 25.4.8, SVG Export Plug-In . SVG Version: 6.00 Build 0)  -->
<svg version="1.1" id="Layer_1" xmlns="http://www.w3.org/2000/svg" xmlns:xlink="http://www.w3.org/1999/xlink" x="0px" y="0px"
	 viewBox="0 0 799.7 121" style="enable-background:new 0 0 799.7 121;" xml:space="preserve">
<style type="text/css">
	.st0{fill:#FFFFFF;}
</style>
<g>
	<g>
		<g>
			<g>
				<g>
					<rect y="48.2" class="st0" width="9" height="1"/>
				</g>
				<g>
					<rect x="66.8" y="10.7" class="st0" width="9" height="38.5"/>
				</g>
				<g>
					<rect x="89" class="st0" width="9" height="49.1"/>
				</g>
				<g>
					<rect x="111.2" y="10.7" class="st0" width="9" height="38.5"/>
				</g>
				<g>
					<rect x="133.5" y="34.9" class="st0" width="9" height="14.2"/>
				</g>
				<g>
					<rect x="155.8" y="45.7" class="st0" width="9" height="3.4"/>
				</g>
				<g>
					<rect x="22.2" y="45.7" class="st0" width="9" height="3.4"/>
				</g>
				<g>
					<rect x="44.5" y="34.9" class="st0" width="9" height="14.2"/>
				</g>
			</g>
			<g>
				<rect x="178" y="48.2" class="st0" width="9" height="1"/>
			</g>
		</g>
		<g>
			<g>
				<g>
					<rect y="71.9" class="st0" width="9" height="1"/>
				</g>
				<g>
					<rect x="66.8" y="71.9" class="st0" width="9" height="38.5"/>
				</g>
				<g>
					<rect x="89" y="71.9" class="st0" width="9" height="49.1"/>
				</g>
				<g>
					<rect x="111.2" y="71.9" class="st0" width="9" height="38.5"/>
				</g>
				<g>
					<rect x="133.5" y="71.9" class="st0" width="9" height="14.2"/>
				</g>
				<g>
					<rect x="155.8" y="71.9" class="st0" width="9" height="3.4"/>
				</g>
				<g>
					<rect x="22.2" y="71.9" class="st0" width="9" height="3.4"/>
				</g>
				<g>
					<rect x="44.5" y="71.9" class="st0" width="9" height="14.2"/>
				</g>
			</g>
			<g>
				<rect x="178" y="71.9" class="st0" width="9" height="1"/>
			</g>
		</g>
	</g>
	<g>
		<g>
			<polygon class="st0" points="543.4,27.3 543.4,27.3 515.8,54 488.1,27.3 488.1,27.3 478.5,27.3 478.5,93.7 488.1,93.7 
				488.1,40.3 509,60.5 515.8,67 522.5,60.5 543.4,40.3 543.4,93.7 553,93.7 553,27.3 			"/>
		</g>
		<g>
			<polygon class="st0" points="607.4,26.8 607.4,36 607.4,56.2 607.4,65.3 607.4,83.8 607.4,93 616.8,93 676.5,93 676.5,83.8 
				616.8,83.8 616.8,65.3 676.5,65.3 676.5,56.2 616.8,56.2 616.8,36 676.5,36 676.5,26.8 616.8,26.8 			"/>
		</g>
		<g>
			<polygon class="st0" points="799.7,33.3 792.9,26.8 765.3,53.5 737.3,26.8 730.6,33.3 758.3,60 730.6,86.5 737.3,93 765.3,66.5 
				792.7,93 799.4,86.5 772,60 			"/>
		</g>
		<g>
			<path class="st0" d="M266.3,27.8c-9.9,0-34.4,0-34.4,0V61v33.2h34.4c19,0,34.4-14.9,34.4-33.2S285.3,27.8,266.3,27.8 M266.3,84.8
				h-25V61V36.9c7.9,0,19,0,25,0c13.7,0,25,10.8,25,23.8C291,74,280,84.8,266.3,84.8"/>
		</g>
		<g>
			<polygon class="st0" points="355.3,26.8 355.3,36.2 355.3,56.2 355.3,65.6 355.3,84.1 355.3,93.2 364.9,93.2 424.3,93.2 
				424.3,84.1 364.9,84.1 364.9,65.6 424.3,65.6 424.3,56.2 364.9,56.2 364.9,36.2 424.3,36.2 424.3,26.8 364.9,26.8 			"/>
		</g>
	</g>
</g>
</svg>
