<svg width="137" height="11" viewBox="0 0 137 11" fill="none" xmlns="http://www.w3.org/2000/svg">
<path d="M15.272 0.592C15.5707 0.613333 15.8 0.666666 15.96 0.752C16.12 0.826666 16.232 0.922666 16.296 1.04C16.36 1.14667 16.3813 1.264 16.36 1.392C16.3493 1.52 16.3227 1.64267 16.28 1.76C16.1093 2.18667 15.912 2.66667 15.688 3.2C15.464 3.72267 15.224 4.26667 14.968 4.832C14.7227 5.39733 14.472 5.96267 14.216 6.528C13.96 7.09333 13.7147 7.632 13.48 8.144C13.2453 8.656 13.032 9.12533 12.84 9.552C12.648 9.97867 12.4933 10.3307 12.376 10.608C12.056 10.5653 11.7627 10.5013 11.496 10.416C11.24 10.3413 11.0373 10.2347 10.888 10.096C10.7387 9.968 10.6533 9.80267 10.632 9.6C10.6107 9.38667 10.68 9.136 10.84 8.848C10.9787 8.58133 11.176 8.208 11.432 7.728C11.688 7.23733 11.9707 6.69867 12.28 6.112C12.6 5.52533 12.9307 4.912 13.272 4.272C13.6133 3.632 13.9387 3.024 14.248 2.448C13.7787 2.88533 13.24 3.41867 12.632 4.048C12.024 4.67733 11.4213 5.328 10.824 6C10.2267 6.672 9.66667 7.32267 9.144 7.952C8.62133 8.57067 8.21067 9.09333 7.912 9.52L7.528 10.496C7.29333 10.3893 7.096 10.1813 6.936 9.872C6.78667 9.56267 6.664 9.2 6.568 8.784C6.48267 8.35733 6.41867 7.89333 6.376 7.392C6.33333 6.89067 6.30667 6.384 6.296 5.872C6.28533 5.36 6.28533 4.864 6.296 4.384C6.30667 3.904 6.31733 3.47733 6.328 3.104C6.008 3.65867 5.66133 4.31467 5.288 5.072C4.91467 5.82933 4.54667 6.58667 4.184 7.344C3.832 8.09067 3.50133 8.77867 3.192 9.408C2.89333 10.0267 2.65867 10.48 2.488 10.768C2.18933 10.7573 1.91733 10.7093 1.672 10.624C1.43733 10.5387 1.25067 10.4213 1.112 10.272C0.973333 10.1227 0.898667 9.94667 0.888 9.744C0.877333 9.54133 0.957333 9.312 1.128 9.056C1.26667 8.832 1.45867 8.51733 1.704 8.112C1.94933 7.696 2.22667 7.23733 2.536 6.736C2.856 6.224 3.18667 5.68 3.528 5.104C3.88 4.528 4.22667 3.968 4.568 3.424C4.92 2.86933 5.25067 2.352 5.56 1.872C5.88 1.38133 6.16267 0.965333 6.408 0.624C6.632 0.666666 6.81867 0.736 6.968 0.832C7.128 0.917333 7.256 1.01867 7.352 1.136C7.45867 1.24267 7.53867 1.36 7.592 1.488C7.656 1.60533 7.69867 1.71733 7.72 1.824C7.76267 2.016 7.78933 2.34133 7.8 2.8C7.81067 3.248 7.82667 3.74933 7.848 4.304C7.86933 4.85867 7.90667 5.43467 7.96 6.032C8.024 6.61867 8.12 7.14133 8.248 7.6C8.6 7.184 9.00533 6.72533 9.464 6.224C9.92267 5.712 10.3973 5.19467 10.888 4.672C11.3893 4.14933 11.88 3.64267 12.36 3.152C12.8507 2.65067 13.2933 2.208 13.688 1.824C14.0827 1.44 14.4133 1.136 14.68 0.912C14.9573 0.677333 15.128 0.565333 15.192 0.575999L15.256 0.624C15.256 0.624 15.2613 0.613333 15.272 0.592ZM7.464 10.384C7.47467 10.3947 7.48 10.4 7.48 10.4C7.48 10.3893 7.47467 10.384 7.464 10.384ZM7.512 10.416C7.50133 10.416 7.49067 10.4107 7.48 10.4C7.49067 10.4107 7.50133 10.416 7.512 10.416ZM20.388 4.944C20.3987 5.2 20.2653 5.43467 19.988 5.648C20.212 5.68 20.3187 5.728 20.308 5.792C20.1267 6.272 19.924 6.73067 19.7 7.168C19.476 7.59467 19.284 8.032 19.124 8.48C18.9747 8.84267 18.948 9.01867 19.044 9.008C19.14 8.99733 19.316 8.87467 19.572 8.64C19.828 8.39467 20.1373 8.07467 20.5 7.68C20.8627 7.28533 21.236 6.88533 21.62 6.48C21.6307 6.50133 21.6467 6.53867 21.668 6.592C21.7 6.63467 21.716 6.69333 21.716 6.768C21.7267 6.832 21.716 6.91733 21.684 7.024C21.652 7.12 21.5827 7.22133 21.476 7.328C21.1773 7.63733 20.9107 7.91467 20.676 8.16C20.452 8.39467 20.2333 8.608 20.02 8.8C19.8173 8.992 19.604 9.168 19.38 9.328C19.1667 9.488 18.9267 9.65333 18.66 9.824C18.5107 9.92 18.356 9.97867 18.196 10C18.036 10.032 17.8867 10.032 17.748 10C17.6093 9.97867 17.492 9.93067 17.396 9.856C17.3 9.78133 17.2467 9.69067 17.236 9.584C17.236 9.41333 17.268 9.2 17.332 8.944C17.0013 9.22133 16.6493 9.472 16.276 9.696C15.9027 9.90933 15.572 10.016 15.284 10.016C15.0067 10.016 14.7933 9.96267 14.644 9.856C14.5053 9.73867 14.4253 9.58933 14.404 9.408C14.372 9.12 14.404 8.79467 14.5 8.432C14.5853 8.05867 14.7293 7.68533 14.932 7.312C15.1347 6.928 15.38 6.55467 15.668 6.192C15.9667 5.82933 16.2973 5.50933 16.66 5.232C17.0227 4.944 17.412 4.72 17.828 4.56C18.2547 4.38933 18.692 4.30933 19.14 4.32C19.46 4.32 19.7427 4.37333 19.988 4.48C20.2333 4.576 20.3667 4.73067 20.388 4.944ZM18.052 5.872C18.3933 5.81867 18.6653 5.72267 18.868 5.584C19.0813 5.43467 19.2307 5.264 19.316 5.072C19.3373 4.98667 19.316 4.90133 19.252 4.816C19.188 4.72 19.0493 4.70933 18.836 4.784C18.644 4.83733 18.4413 4.96 18.228 5.152C18.0147 5.344 17.8067 5.57333 17.604 5.84C17.4013 6.10667 17.2093 6.39467 17.028 6.704C16.8467 7.01333 16.6867 7.31733 16.548 7.616C16.4093 7.91467 16.2973 8.18667 16.212 8.432C16.1373 8.67733 16.1 8.86933 16.1 9.008C16.1 9.11467 16.1533 9.15733 16.26 9.136C16.3773 9.11467 16.5107 9.056 16.66 8.96C16.8093 8.864 16.9693 8.74667 17.14 8.608C17.3213 8.46933 17.476 8.33067 17.604 8.192C17.7533 7.82933 17.9133 7.46133 18.084 7.088C18.2653 6.71467 18.4307 6.37333 18.58 6.064C18.3133 6.04267 18.1373 5.97867 18.052 5.872ZM24.4513 3.216H25.4113C25.5499 3.20533 25.6459 3.22133 25.6993 3.264C25.7526 3.296 25.7686 3.33867 25.7473 3.392C25.7366 3.44533 25.6886 3.49867 25.6033 3.552C25.5179 3.59467 25.4006 3.62133 25.2513 3.632H24.2593L22.1313 8.48C21.9819 8.84267 21.9606 9.01867 22.0673 9.008C22.1739 8.98667 22.3553 8.85867 22.6113 8.624C22.8779 8.37867 23.1979 8.05867 23.5713 7.664C23.9553 7.26933 24.3393 6.86933 24.7233 6.464C24.7233 6.47467 24.7339 6.50667 24.7552 6.56C24.7873 6.60267 24.8086 6.66133 24.8193 6.736C24.8299 6.81067 24.8193 6.90133 24.7873 7.008C24.7659 7.104 24.6966 7.21067 24.5793 7.328C24.2699 7.63733 23.9979 7.91467 23.7633 8.16C23.5393 8.39467 23.3206 8.608 23.1073 8.8C22.9046 8.992 22.6966 9.168 22.4833 9.328C22.2699 9.488 22.0299 9.65333 21.7633 9.824C21.6139 9.92 21.4486 9.97867 21.2673 10C21.0966 10.0107 20.9366 9.98933 20.7873 9.936C20.6379 9.88267 20.5206 9.80267 20.4352 9.696C20.3499 9.58933 20.3232 9.456 20.3552 9.296C20.4192 8.98667 20.5099 8.67733 20.6273 8.368C20.7553 8.048 20.8939 7.70133 21.0433 7.328C21.3206 6.69867 21.6086 6.064 21.9073 5.424C22.2059 4.77333 22.4886 4.176 22.7553 3.632H22.6273C22.4993 3.632 22.4033 3.61067 22.3393 3.568C22.2753 3.52533 22.2433 3.48267 22.2433 3.44C22.2539 3.38667 22.3019 3.33867 22.3873 3.296C22.4726 3.25333 22.6006 3.22667 22.7713 3.216H22.9633C23.0486 3.03467 23.1339 2.86933 23.2193 2.72C23.3046 2.57067 23.3846 2.432 23.4593 2.304C23.5553 2.15467 23.6886 2.05333 23.8593 2C24.0299 1.94667 24.1953 1.92533 24.3553 1.936C24.5153 1.936 24.6539 1.96267 24.7713 2.016C24.8886 2.05867 24.9366 2.10667 24.9153 2.16L24.4513 3.216ZM27.545 3.216H28.505C28.6437 3.20533 28.7397 3.22133 28.793 3.264C28.8463 3.296 28.8623 3.33867 28.841 3.392C28.8303 3.44533 28.7823 3.49867 28.697 3.552C28.6117 3.59467 28.4943 3.62133 28.345 3.632H27.353L25.225 8.48C25.0757 8.84267 25.0543 9.01867 25.161 9.008C25.2677 8.98667 25.449 8.85867 25.705 8.624C25.9717 8.37867 26.2917 8.05867 26.665 7.664C27.049 7.26933 27.433 6.86933 27.817 6.464C27.817 6.47467 27.8277 6.50667 27.849 6.56C27.881 6.60267 27.9023 6.66133 27.913 6.736C27.9237 6.81067 27.913 6.90133 27.881 7.008C27.8597 7.104 27.7903 7.21067 27.673 7.328C27.3637 7.63733 27.0917 7.91467 26.857 8.16C26.633 8.39467 26.4143 8.608 26.201 8.8C25.9983 8.992 25.7903 9.168 25.577 9.328C25.3637 9.488 25.1237 9.65333 24.857 9.824C24.7077 9.92 24.5423 9.97867 24.361 10C24.1903 10.0107 24.0303 9.98933 23.881 9.936C23.7317 9.88267 23.6143 9.80267 23.529 9.696C23.4437 9.58933 23.417 9.456 23.449 9.296C23.513 8.98667 23.6037 8.67733 23.721 8.368C23.849 8.048 23.9877 7.70133 24.137 7.328C24.4143 6.69867 24.7023 6.064 25.001 5.424C25.2997 4.77333 25.5823 4.176 25.849 3.632H25.721C25.593 3.632 25.497 3.61067 25.433 3.568C25.369 3.52533 25.337 3.48267 25.337 3.44C25.3477 3.38667 25.3957 3.33867 25.481 3.296C25.5663 3.25333 25.6943 3.22667 25.865 3.216H26.057C26.1423 3.03467 26.2277 2.86933 26.313 2.72C26.3983 2.57067 26.4783 2.432 26.553 2.304C26.649 2.15467 26.7823 2.05333 26.953 2C27.1237 1.94667 27.289 1.92533 27.449 1.936C27.609 1.936 27.7477 1.96267 27.865 2.016C27.9823 2.05867 28.0303 2.10667 28.009 2.16L27.545 3.216ZM28.8788 7.2C29.3694 6.66667 29.7854 6.21867 30.1268 5.856C30.4681 5.49333 30.7561 5.2 30.9908 4.976C31.2361 4.752 31.4388 4.59733 31.5988 4.512C31.7694 4.416 31.9188 4.368 32.0468 4.368C32.2281 4.368 32.3774 4.416 32.4948 4.512C32.6121 4.59733 32.6761 4.73067 32.6868 4.912C32.6974 5.06133 32.6708 5.232 32.6068 5.424C32.5534 5.60533 32.4681 5.83467 32.3508 6.112C32.2334 6.38933 32.0841 6.72 31.9028 7.104C31.7214 7.488 31.5134 7.94667 31.2788 8.48C31.1294 8.84267 31.1081 9.01867 31.2148 9.008C31.3214 8.98667 31.5028 8.85867 31.7588 8.624C32.0254 8.37867 32.3454 8.05867 32.7188 7.664C33.1028 7.26933 33.4868 6.86933 33.8708 6.464C33.8708 6.47467 33.8814 6.50667 33.9028 6.56C33.9348 6.60267 33.9561 6.66133 33.9668 6.736C33.9774 6.81067 33.9668 6.90133 33.9348 7.008C33.9134 7.104 33.8441 7.21067 33.7268 7.328C33.4174 7.63733 33.1454 7.91467 32.9108 8.16C32.6868 8.39467 32.4681 8.608 32.2548 8.8C32.0414 8.992 31.8281 9.168 31.6148 9.328C31.4014 9.488 31.1614 9.65333 30.8948 9.824C30.7454 9.92 30.5801 9.97867 30.3988 10C30.2174 10.0107 30.0521 9.98933 29.9028 9.936C29.7534 9.88267 29.6361 9.80267 29.5508 9.696C29.4654 9.58933 29.4388 9.456 29.4708 9.296C29.5561 8.89067 29.6948 8.47467 29.8868 8.048C30.0788 7.62133 30.3081 7.14133 30.5748 6.608C30.6494 6.448 30.6548 6.34667 30.5908 6.304C30.5268 6.26133 30.4201 6.31467 30.2708 6.464C30.1214 6.592 29.9561 6.74667 29.7748 6.928C29.6041 7.09867 29.4281 7.28 29.2468 7.472C29.0654 7.65333 28.8894 7.83467 28.7188 8.016C28.5588 8.19733 28.4254 8.352 28.3188 8.48L28.1908 8.752C28.0734 9.04 27.9614 9.26933 27.8548 9.44C27.7481 9.6 27.6414 9.72267 27.5348 9.808C27.4281 9.89333 27.3108 9.94667 27.1828 9.968C27.0654 9.98933 26.9374 10 26.7988 10C26.6174 9.98933 26.4787 9.92533 26.3827 9.808C26.2867 9.69067 26.2814 9.52533 26.3667 9.312C26.4414 9.10933 26.5534 8.832 26.7027 8.48C26.8521 8.11733 27.0228 7.71733 27.2148 7.28C27.4068 6.832 27.6094 6.368 27.8228 5.888C28.0468 5.408 28.2654 4.944 28.4788 4.496C28.7028 4.048 28.9108 3.632 29.1028 3.248C29.3054 2.864 29.4814 2.54933 29.6308 2.304C29.7161 2.15467 29.8441 2.05333 30.0148 2C30.1854 1.94667 30.3508 1.92533 30.5108 1.936C30.6814 1.936 30.8254 1.96267 30.9427 2.016C31.0601 2.05867 31.1081 2.10667 31.0868 2.16L28.8788 7.2ZM35.5816 9.872C35.4216 9.94667 35.2083 10 34.9416 10.032C34.6856 10.0747 34.4243 10.0693 34.1576 10.016C33.891 9.97333 33.6403 9.872 33.4056 9.712C33.1816 9.54133 33.0323 9.28533 32.9576 8.944C32.8936 8.64533 32.9043 8.31467 32.9896 7.952C33.0856 7.58933 33.235 7.232 33.4376 6.88C33.6403 6.51733 33.891 6.176 34.1896 5.856C34.499 5.52533 34.8403 5.24267 35.2136 5.008C35.587 4.76267 35.9816 4.58133 36.3976 4.464C36.8243 4.34667 37.2616 4.31467 37.7096 4.368C37.9336 4.4 38.1096 4.45333 38.2376 4.528C38.3656 4.60267 38.4616 4.68267 38.5256 4.768C38.5896 4.85333 38.6323 4.944 38.6536 5.04C38.675 5.12533 38.6856 5.2 38.6856 5.264C38.6856 5.60533 38.5416 5.94133 38.2536 6.272C37.9763 6.592 37.6296 6.87467 37.2136 7.12C36.8083 7.35467 36.3763 7.53067 35.9176 7.648C35.459 7.75467 35.0536 7.76 34.7016 7.664C34.531 8.12267 34.4616 8.49067 34.4936 8.768C34.5256 9.03467 34.627 9.21067 34.7976 9.296C34.9683 9.37067 35.1816 9.38133 35.4376 9.328C35.6936 9.264 35.9816 9.14133 36.3016 8.96C36.6216 8.768 36.9416 8.544 37.2616 8.288C37.571 8.05333 37.875 7.77067 38.1736 7.44C38.483 7.10933 38.7923 6.784 39.1016 6.464C39.1016 6.47467 39.1123 6.50667 39.1336 6.56C39.1656 6.60267 39.187 6.66133 39.1976 6.736C39.2083 6.81067 39.1976 6.90133 39.1656 7.008C39.1443 7.104 39.075 7.21067 38.9576 7.328C38.3603 7.95733 37.8003 8.47467 37.2776 8.88C36.7656 9.27467 36.2003 9.60533 35.5816 9.872ZM37.1016 4.784C36.9096 4.83733 36.707 4.94933 36.4936 5.12C36.291 5.28 36.0883 5.47733 35.8856 5.712C35.683 5.936 35.491 6.18667 35.3096 6.464C35.139 6.74133 34.9896 7.01867 34.8616 7.296C35.1496 7.21067 35.443 7.088 35.7416 6.928C36.051 6.75733 36.3336 6.57067 36.5896 6.368C36.8456 6.16533 37.0536 5.95733 37.2136 5.744C37.3843 5.53067 37.475 5.328 37.4856 5.136C37.4856 5.09333 37.4856 5.04533 37.4856 4.992C37.4963 4.93867 37.4856 4.89067 37.4536 4.848C37.4323 4.80533 37.395 4.77867 37.3416 4.768C37.2883 4.74667 37.2083 4.752 37.1016 4.784ZM46.9913 5.104C46.9806 5.456 46.8313 5.872 46.5433 6.352C46.2552 6.832 45.9033 7.30667 45.4873 7.776C45.0713 8.24533 44.6286 8.67733 44.1593 9.072C43.7006 9.456 43.2846 9.73333 42.9113 9.904C42.7406 9.97867 42.5646 10.0213 42.3833 10.032C42.2019 10.0533 42.0366 10.0427 41.8873 10C41.7379 9.95733 41.6153 9.88267 41.5193 9.776C41.4233 9.66933 41.3699 9.52 41.3593 9.328C41.3379 9.14667 41.3539 8.912 41.4073 8.624C41.4713 8.336 41.5513 8.02133 41.6473 7.68C41.4019 7.936 41.1779 8.16533 40.9753 8.368C40.7833 8.56 40.5913 8.74133 40.3993 8.912C40.2179 9.072 40.0259 9.22667 39.8233 9.376C39.6313 9.52533 39.4126 9.67467 39.1673 9.824C39.0179 9.92 38.8526 9.97867 38.6713 10C38.5006 10.0107 38.3406 9.98933 38.1913 9.936C38.0526 9.88267 37.9406 9.80267 37.8552 9.696C37.7699 9.58933 37.7432 9.456 37.7752 9.296C37.8499 8.93333 37.9566 8.56 38.0953 8.176C38.2446 7.78133 38.4099 7.392 38.5913 7.008C38.7726 6.624 38.9699 6.24 39.1833 5.856C39.3966 5.472 39.6099 5.104 39.8233 4.752C39.9193 4.60267 40.0526 4.50133 40.2233 4.448C40.4046 4.39467 40.5753 4.37333 40.7353 4.384C40.9059 4.39467 41.0499 4.42667 41.1673 4.48C41.2846 4.52267 41.3326 4.57067 41.3113 4.624L39.5513 8.48C39.4019 8.832 39.3753 9.008 39.4713 9.008C39.5779 9.008 39.7539 8.896 39.9993 8.672C40.2446 8.448 40.5433 8.14933 40.8953 7.776C41.2473 7.392 41.6099 7.00267 41.9833 6.608C42.1006 6.27733 42.2339 5.952 42.3833 5.632C42.5326 5.312 42.6819 5.01333 42.8313 4.736C42.9166 4.58667 43.0393 4.48533 43.1993 4.432C43.3699 4.368 43.5353 4.34133 43.6953 4.352C43.8659 4.36267 44.0099 4.39467 44.1273 4.448C44.2446 4.49067 44.2979 4.544 44.2873 4.608C44.1593 4.94933 44.0153 5.32267 43.8553 5.728C43.6953 6.12267 43.5459 6.512 43.4073 6.896C43.2686 7.26933 43.1513 7.60533 43.0553 7.904C42.9699 8.20267 42.9273 8.42133 42.9273 8.56C42.9379 8.90133 42.9806 9.06667 43.0553 9.056C43.1299 9.04533 43.2899 8.92267 43.5353 8.688C43.7166 8.528 43.9086 8.32 44.1113 8.064C44.3246 7.79733 44.5219 7.52 44.7033 7.232C44.8846 6.93333 45.0446 6.62933 45.1833 6.32C45.3326 6 45.4339 5.70667 45.4873 5.44C45.5513 5.16267 45.5619 4.92267 45.5193 4.72C45.4873 4.50667 45.3806 4.352 45.1993 4.256C45.4233 4.20267 45.6473 4.18667 45.8713 4.208C46.0953 4.21867 46.2926 4.26667 46.4633 4.352C46.6339 4.42667 46.7673 4.528 46.8633 4.656C46.9593 4.784 47.0019 4.93333 46.9913 5.104ZM61.4511 0.528C62.0805 0.666666 62.5071 0.837333 62.7311 1.04C62.9551 1.232 63.0671 1.424 63.0671 1.616C61.9898 1.424 60.9925 1.312 60.0751 1.28C59.1578 1.23733 58.3151 1.25867 57.5471 1.344C57.7391 1.472 57.8511 1.632 57.8831 1.824C57.9258 2.00533 57.9205 2.17067 57.8671 2.32C57.6111 2.96 57.3125 3.67467 56.9711 4.464C56.6298 5.25333 56.2885 6.03733 55.9471 6.816C55.6165 7.584 55.2965 8.304 54.9871 8.976C54.6885 9.648 54.4538 10.192 54.2831 10.608C53.9631 10.5653 53.6645 10.5013 53.3871 10.416C53.1205 10.3413 52.9071 10.2347 52.7471 10.096C52.5871 9.95733 52.4911 9.78667 52.4591 9.584C52.4378 9.37067 52.5071 9.12 52.6671 8.832C52.7845 8.608 52.9285 8.32533 53.0991 7.984C53.2805 7.632 53.4778 7.248 53.6911 6.832C53.9045 6.416 54.1285 5.97333 54.3631 5.504C54.6085 5.03467 54.8538 4.56533 55.0991 4.096C55.3445 3.62667 55.5845 3.168 55.8191 2.72C56.0538 2.272 56.2725 1.86133 56.4751 1.488C55.4831 1.68 54.6298 1.94667 53.9151 2.288C53.2111 2.62933 52.6458 2.99733 52.2191 3.392C51.7925 3.776 51.4991 4.16 51.3391 4.544C51.1898 4.91733 51.1738 5.22667 51.2911 5.472C50.7471 5.41867 50.3205 5.30133 50.0111 5.12C49.7018 4.93867 49.4938 4.736 49.3871 4.512C49.2698 4.27733 49.2431 4.032 49.3071 3.776C49.3605 3.52 49.4831 3.296 49.6751 3.104C50.0485 2.70933 50.6298 2.30933 51.4191 1.904C52.2085 1.488 53.1258 1.136 54.1711 0.848C55.2271 0.559999 56.3791 0.373333 57.6271 0.287999C58.8751 0.202666 60.1498 0.282667 61.4511 0.528ZM59.785 7.2C60.2757 6.66667 60.6917 6.21867 61.033 5.856C61.3743 5.49333 61.6623 5.2 61.897 4.976C62.1423 4.752 62.345 4.59733 62.505 4.512C62.6757 4.416 62.825 4.368 62.953 4.368C63.1343 4.368 63.2837 4.416 63.401 4.512C63.5183 4.59733 63.5823 4.73067 63.593 4.912C63.6037 5.06133 63.577 5.232 63.513 5.424C63.4597 5.60533 63.3743 5.83467 63.257 6.112C63.1397 6.38933 62.9903 6.72 62.809 7.104C62.6277 7.488 62.4197 7.94667 62.185 8.48C62.0357 8.84267 62.0143 9.01867 62.121 9.008C62.2277 8.98667 62.409 8.85867 62.665 8.624C62.9317 8.37867 63.2517 8.05867 63.625 7.664C64.009 7.26933 64.393 6.86933 64.777 6.464C64.777 6.47467 64.7877 6.50667 64.809 6.56C64.841 6.60267 64.8623 6.66133 64.873 6.736C64.8837 6.81067 64.873 6.90133 64.841 7.008C64.8197 7.104 64.7503 7.21067 64.633 7.328C64.3237 7.63733 64.0517 7.91467 63.817 8.16C63.593 8.39467 63.3743 8.608 63.161 8.8C62.9477 8.992 62.7343 9.168 62.521 9.328C62.3077 9.488 62.0677 9.65333 61.801 9.824C61.6517 9.92 61.4863 9.97867 61.305 10C61.1237 10.0107 60.9583 9.98933 60.809 9.936C60.6597 9.88267 60.5423 9.80267 60.457 9.696C60.3717 9.58933 60.345 9.456 60.377 9.296C60.4623 8.89067 60.601 8.47467 60.793 8.048C60.985 7.62133 61.2143 7.14133 61.481 6.608C61.5557 6.448 61.561 6.34667 61.497 6.304C61.433 6.26133 61.3263 6.31467 61.177 6.464C61.0277 6.592 60.8623 6.74667 60.681 6.928C60.5103 7.09867 60.3343 7.28 60.153 7.472C59.9717 7.65333 59.7957 7.83467 59.625 8.016C59.465 8.19733 59.3317 8.352 59.225 8.48L59.097 8.752C58.9797 9.04 58.8677 9.26933 58.761 9.44C58.6543 9.6 58.5477 9.72267 58.441 9.808C58.3343 9.89333 58.217 9.94667 58.089 9.968C57.9717 9.98933 57.8437 10 57.705 10C57.5237 9.98933 57.385 9.92533 57.289 9.808C57.193 9.69067 57.1877 9.52533 57.273 9.312C57.3477 9.10933 57.4597 8.832 57.609 8.48C57.7583 8.11733 57.929 7.71733 58.121 7.28C58.313 6.832 58.5157 6.368 58.729 5.888C58.953 5.408 59.1717 4.944 59.385 4.496C59.609 4.048 59.817 3.632 60.009 3.248C60.2117 2.864 60.3877 2.54933 60.537 2.304C60.6223 2.15467 60.7503 2.05333 60.921 2C61.0917 1.94667 61.257 1.92533 61.417 1.936C61.5877 1.936 61.7317 1.96267 61.849 2.016C61.9663 2.05867 62.0143 2.10667 61.993 2.16L59.785 7.2ZM65.2559 10.032C64.7439 10.032 64.3759 9.89333 64.1519 9.616C63.9279 9.328 63.8212 8.976 63.8319 8.56C63.8532 8.13333 63.9812 7.67467 64.2159 7.184C64.4505 6.69333 64.7599 6.24 65.1439 5.824C65.5385 5.39733 65.9972 5.04533 66.5199 4.768C67.0532 4.48 67.6292 4.336 68.2479 4.336C68.7279 4.336 69.0692 4.45867 69.2719 4.704C69.4745 4.93867 69.5705 5.24267 69.5599 5.616C69.5599 5.97867 69.4639 6.384 69.2719 6.832C69.0799 7.26933 68.8239 7.696 68.5039 8.112C68.6852 8.10133 68.8772 8.032 69.0799 7.904C69.2932 7.76533 69.4959 7.61067 69.6879 7.44C69.8905 7.25867 70.0772 7.07733 70.2479 6.896C70.4185 6.71467 70.5572 6.57067 70.6639 6.464C70.6639 6.47467 70.6745 6.50667 70.6959 6.56C70.7172 6.60267 70.7279 6.66133 70.7279 6.736C70.7385 6.81067 70.7279 6.90133 70.6959 7.008C70.6745 7.104 70.6105 7.21067 70.5039 7.328L70.1519 7.712C69.9705 7.89333 69.7892 8.05333 69.6079 8.192C69.4265 8.32 69.2665 8.416 69.1279 8.48C68.7119 8.69333 68.3012 8.8 67.8959 8.8C67.5225 9.16267 67.1065 9.46133 66.6479 9.696C66.1999 9.92 65.7359 10.032 65.2559 10.032ZM65.6239 9.392C65.8052 9.38133 66.0025 9.28 66.2159 9.088C66.4399 8.896 66.6585 8.64533 66.8719 8.336C66.7012 8.13333 66.5999 7.888 66.5679 7.6C66.5465 7.44 66.5785 7.30133 66.6639 7.184C66.7492 7.056 66.8505 6.96 66.9679 6.896C67.0959 6.82133 67.2239 6.784 67.3519 6.784C67.4905 6.784 67.6079 6.82667 67.7039 6.912C67.8319 6.63467 67.9439 6.36267 68.0399 6.096C68.1465 5.82933 68.2159 5.59467 68.2479 5.392C68.2905 5.18933 68.3012 5.02933 68.2799 4.912C68.2585 4.784 68.1945 4.72 68.0879 4.72C67.8532 4.72 67.5972 4.83733 67.3199 5.072C67.0532 5.296 66.7919 5.584 66.5359 5.936C66.2799 6.27733 66.0452 6.65067 65.8319 7.056C65.6292 7.46133 65.4745 7.84 65.3679 8.192C65.2612 8.53333 65.2185 8.82133 65.2399 9.056C65.2719 9.28 65.3999 9.392 65.6239 9.392ZM75.0825 4.912C75.0932 4.99733 75.0558 5.18933 74.9705 5.488C74.8852 5.776 74.7678 6.12267 74.6185 6.528L75.5625 5.296C75.5732 5.264 75.6158 5.2 75.6905 5.104C75.7758 4.99733 75.8772 4.89067 75.9945 4.784C76.1225 4.66667 76.2612 4.56533 76.4105 4.48C76.5705 4.39467 76.7305 4.352 76.8905 4.352C77.0718 4.36267 77.2265 4.416 77.3545 4.512C77.4932 4.59733 77.5678 4.73067 77.5785 4.912C77.5892 5.06133 77.5678 5.232 77.5145 5.424C77.4612 5.60533 77.3758 5.83467 77.2585 6.112C77.1412 6.38933 76.9865 6.72 76.7945 7.104C76.6132 7.488 76.4052 7.94667 76.1705 8.48C76.0212 8.84267 75.9998 9.01867 76.1065 9.008C76.2132 8.98667 76.3998 8.85867 76.6665 8.624C76.9332 8.37867 77.2532 8.05867 77.6265 7.664C77.9998 7.26933 78.3785 6.86933 78.7625 6.464C78.7625 6.47467 78.7732 6.50667 78.7945 6.56C78.8265 6.60267 78.8478 6.66133 78.8585 6.736C78.8692 6.81067 78.8585 6.90133 78.8265 7.008C78.8052 7.104 78.7358 7.21067 78.6185 7.328C78.3092 7.63733 78.0372 7.91467 77.8025 8.16C77.5785 8.39467 77.3598 8.608 77.1465 8.8C76.9438 8.992 76.7358 9.168 76.5225 9.328C76.3092 9.488 76.0692 9.65333 75.8025 9.824C75.6532 9.92 75.4878 9.97867 75.3065 10C75.1252 10.0107 74.9598 9.98933 74.8105 9.936C74.6612 9.88267 74.5385 9.80267 74.4425 9.696C74.3572 9.58933 74.3305 9.456 74.3625 9.296C74.4692 8.85867 74.6238 8.40533 74.8265 7.936C75.0398 7.46667 75.2905 6.93867 75.5785 6.352C75.6318 6.21333 75.6478 6.144 75.6265 6.144C75.6052 6.144 75.5678 6.176 75.5145 6.24C75.4612 6.304 75.3972 6.384 75.3225 6.48C75.2478 6.576 75.1892 6.656 75.1465 6.72C74.9972 6.92267 74.7945 7.17333 74.5385 7.472C74.2932 7.77067 74.0798 8.04267 73.8985 8.288L73.6905 8.752C73.5732 9.04 73.4612 9.26933 73.3545 9.44C73.2478 9.6 73.1412 9.72267 73.0345 9.808C72.9278 9.89333 72.8158 9.94667 72.6985 9.968C72.5812 9.98933 72.4532 10 72.3145 10C71.8665 9.97867 71.6852 9.74933 71.7705 9.312C71.8558 8.87467 72.0158 8.42133 72.2505 7.952C72.4958 7.472 72.7625 6.93867 73.0505 6.352C73.1038 6.21333 73.1145 6.14933 73.0825 6.16C73.0612 6.16 73.0185 6.19733 72.9545 6.272C72.8905 6.336 72.8158 6.416 72.7305 6.512C72.6558 6.608 72.6025 6.688 72.5705 6.752C72.4745 6.88 72.3625 7.01867 72.2345 7.168C72.1172 7.31733 71.9892 7.472 71.8505 7.632C71.7225 7.792 71.5945 7.952 71.4665 8.112C71.3385 8.26133 71.2265 8.39467 71.1305 8.512L71.0345 8.752C70.9172 9.04 70.8052 9.26933 70.6985 9.44C70.5918 9.6 70.4852 9.72267 70.3785 9.808C70.2718 9.89333 70.1545 9.94667 70.0265 9.968C69.9092 9.98933 69.7812 10 69.6425 10C69.4612 9.98933 69.3225 9.92533 69.2265 9.808C69.1305 9.69067 69.1252 9.52533 69.2105 9.312C69.3172 9.00267 69.4452 8.66133 69.5945 8.288C69.7545 7.904 69.9252 7.50933 70.1065 7.104C70.2878 6.69867 70.4798 6.29333 70.6825 5.888C70.8958 5.472 71.1145 5.08267 71.3385 4.72C71.4238 4.57067 71.5518 4.46933 71.7225 4.416C71.8932 4.352 72.0585 4.32533 72.2185 4.336C72.3892 4.34667 72.5332 4.37867 72.6505 4.432C72.7678 4.47467 72.8158 4.528 72.7945 4.592L71.8345 6.848L73.0185 5.296C73.0505 5.264 73.1038 5.2 73.1785 5.104C73.2638 4.99733 73.3652 4.89067 73.4825 4.784C73.5998 4.66667 73.7332 4.56533 73.8825 4.48C74.0425 4.39467 74.2025 4.352 74.3625 4.352C74.5545 4.36267 74.7145 4.416 74.8425 4.512C74.9705 4.59733 75.0505 4.73067 75.0825 4.912ZM83.5286 4.944C83.5393 5.2 83.406 5.43467 83.1286 5.648C83.3526 5.68 83.4593 5.728 83.4486 5.792C83.2673 6.272 83.0646 6.73067 82.8406 7.168C82.6166 7.59467 82.4246 8.032 82.2646 8.48C82.1153 8.84267 82.0886 9.01867 82.1846 9.008C82.2806 8.99733 82.4566 8.87467 82.7126 8.64C82.9686 8.39467 83.278 8.07467 83.6406 7.68C84.0033 7.28533 84.3766 6.88533 84.7606 6.48C84.7713 6.50133 84.7873 6.53867 84.8086 6.592C84.8406 6.63467 84.8566 6.69333 84.8566 6.768C84.8673 6.832 84.8566 6.91733 84.8246 7.024C84.7926 7.12 84.7233 7.22133 84.6166 7.328C84.318 7.63733 84.0513 7.91467 83.8166 8.16C83.5926 8.39467 83.374 8.608 83.1606 8.8C82.958 8.992 82.7446 9.168 82.5206 9.328C82.3073 9.488 82.0673 9.65333 81.8006 9.824C81.6513 9.92 81.4966 9.97867 81.3366 10C81.1766 10.032 81.0273 10.032 80.8886 10C80.75 9.97867 80.6326 9.93067 80.5366 9.856C80.4406 9.78133 80.3873 9.69067 80.3766 9.584C80.3766 9.41333 80.4086 9.2 80.4726 8.944C80.142 9.22133 79.79 9.472 79.4166 9.696C79.0433 9.90933 78.7126 10.016 78.4246 10.016C78.1473 10.016 77.934 9.96267 77.7846 9.856C77.646 9.73867 77.566 9.58933 77.5446 9.408C77.5126 9.12 77.5446 8.79467 77.6406 8.432C77.726 8.05867 77.87 7.68533 78.0726 7.312C78.2753 6.928 78.5206 6.55467 78.8086 6.192C79.1073 5.82933 79.438 5.50933 79.8006 5.232C80.1633 4.944 80.5526 4.72 80.9686 4.56C81.3953 4.38933 81.8326 4.30933 82.2806 4.32C82.6006 4.32 82.8833 4.37333 83.1286 4.48C83.374 4.576 83.5073 4.73067 83.5286 4.944ZM81.1926 5.872C81.534 5.81867 81.806 5.72267 82.0086 5.584C82.222 5.43467 82.3713 5.264 82.4566 5.072C82.478 4.98667 82.4566 4.90133 82.3926 4.816C82.3286 4.72 82.19 4.70933 81.9766 4.784C81.7846 4.83733 81.582 4.96 81.3686 5.152C81.1553 5.344 80.9473 5.57333 80.7446 5.84C80.542 6.10667 80.35 6.39467 80.1686 6.704C79.9873 7.01333 79.8273 7.31733 79.6886 7.616C79.55 7.91467 79.438 8.18667 79.3526 8.432C79.278 8.67733 79.2406 8.86933 79.2406 9.008C79.2406 9.11467 79.294 9.15733 79.4006 9.136C79.518 9.11467 79.6513 9.056 79.8006 8.96C79.95 8.864 80.11 8.74667 80.2806 8.608C80.462 8.46933 80.6166 8.33067 80.7446 8.192C80.894 7.82933 81.054 7.46133 81.2246 7.088C81.406 6.71467 81.5713 6.37333 81.7206 6.064C81.454 6.04267 81.278 5.97867 81.1926 5.872ZM85.1599 9.152C85.1812 9.30133 85.2452 9.408 85.3519 9.472C85.4692 9.52533 85.5812 9.552 85.6879 9.552C85.9012 9.57333 86.0879 9.536 86.2479 9.44C86.4185 9.33333 86.5465 9.22133 86.6319 9.104C86.7812 8.93333 86.8239 8.77333 86.7599 8.624C86.7065 8.464 86.5945 8.30933 86.4239 8.16C86.2532 8 86.0505 7.84 85.8159 7.68C85.5812 7.52 85.3679 7.35467 85.1759 7.184C84.9839 7.00267 84.8399 6.816 84.7439 6.624C84.6479 6.432 84.6479 6.224 84.7439 6C84.9572 5.49867 85.3199 5.09333 85.8319 4.784C86.3439 4.47467 86.9572 4.31467 87.6719 4.304C88.3119 4.28267 88.7865 4.368 89.0959 4.56C89.4159 4.74133 89.5972 5.01333 89.6399 5.376C89.6719 5.664 89.5812 5.92533 89.3679 6.16C89.1652 6.39467 88.9145 6.576 88.6159 6.704C88.3172 6.82133 88.0132 6.86933 87.7039 6.848C87.4052 6.82667 87.1705 6.69867 86.9999 6.464C87.3412 6.4 87.6239 6.24 87.8479 5.984C88.0719 5.71733 88.2265 5.456 88.3119 5.2C88.3759 4.95467 88.3439 4.82133 88.2159 4.8C88.0879 4.768 87.9225 4.8 87.7199 4.896C87.5172 4.98133 87.3092 5.104 87.0959 5.264C86.8825 5.41333 86.7172 5.552 86.5999 5.68C86.4292 5.86133 86.3545 6.02133 86.3759 6.16C86.3972 6.29867 86.4719 6.432 86.5999 6.56C86.7385 6.67733 86.9092 6.8 87.1119 6.928C87.3145 7.04533 87.5065 7.17333 87.6879 7.312C87.8692 7.45067 88.0185 7.61067 88.1359 7.792C88.2639 7.96267 88.3172 8.16533 88.2959 8.4C88.2639 8.848 88.0185 9.232 87.5599 9.552C87.1119 9.86133 86.5199 10.016 85.7839 10.016C85.4319 10.016 85.1172 9.97867 84.8399 9.904C84.5732 9.82933 84.3545 9.728 84.1839 9.6C84.0239 9.46133 83.9172 9.30667 83.8639 9.136C83.8105 8.95467 83.8319 8.768 83.9279 8.576C84.0025 8.384 84.1412 8.224 84.3439 8.096C84.5572 7.968 84.7812 7.888 85.0159 7.856C85.2612 7.824 85.5012 7.84533 85.7359 7.92C85.9705 7.99467 86.1625 8.144 86.3119 8.368C85.9705 8.432 85.6825 8.53333 85.4479 8.672C85.2132 8.8 85.1172 8.96 85.1599 9.152ZM89.6088 6.336V5.088H93.4808V6.336H89.6088ZM102.685 10.64C102.44 10.6507 102.194 10.6293 101.949 10.576C101.714 10.5333 101.496 10.4533 101.293 10.336C101.101 10.2293 100.936 10.0853 100.797 9.904C100.658 9.712 100.573 9.47733 100.541 9.2C100.04 9.60533 99.5383 9.94133 99.037 10.208C98.5463 10.4747 98.045 10.6187 97.533 10.64C96.9677 10.6613 96.5357 10.544 96.237 10.288C95.949 10.0427 95.7623 9.728 95.677 9.344C95.5917 8.96 95.6023 8.544 95.709 8.096C95.8157 7.63733 95.9917 7.20533 96.237 6.8C96.4077 6.37333 96.6157 5.904 96.861 5.392C97.117 4.86933 97.3783 4.352 97.645 3.84C97.9117 3.31733 98.1783 2.81067 98.445 2.32C98.7117 1.82933 98.9517 1.392 99.165 1.008C98.141 1.17867 97.3517 1.46667 96.797 1.872C96.253 2.26667 95.8743 2.69867 95.661 3.168C95.4583 3.63733 95.3837 4.10667 95.437 4.576C95.501 5.03467 95.6397 5.41333 95.853 5.712C95.309 5.68 94.845 5.58933 94.461 5.44C94.077 5.29067 93.7837 5.09867 93.581 4.864C93.3677 4.62933 93.2503 4.37333 93.229 4.096C93.197 3.808 93.261 3.51467 93.421 3.216C93.613 2.85333 93.8903 2.52267 94.253 2.224C94.6263 1.91467 95.0743 1.64267 95.597 1.408C96.1197 1.16267 96.7063 0.965333 97.357 0.816C98.0077 0.656 98.7117 0.543999 99.469 0.48C99.6717 0.469333 99.8743 0.469333 100.077 0.48C100.29 0.48 100.482 0.496 100.653 0.528C100.834 0.559999 100.989 0.607999 101.117 0.672C101.256 0.725333 101.346 0.794666 101.389 0.879999C101.442 0.997333 101.458 1.11467 101.437 1.232C101.416 1.33867 101.384 1.44533 101.341 1.552C101.202 1.91467 100.978 2.352 100.669 2.864C100.36 3.36533 100.018 3.89867 99.645 4.464C99.2823 5.02933 98.9197 5.60533 98.557 6.192C98.1943 6.77867 97.8903 7.33333 97.645 7.856C97.325 8.51733 97.2183 9.008 97.325 9.328C97.4317 9.648 97.6503 9.80267 97.981 9.792C98.173 9.792 98.3917 9.71733 98.637 9.568C98.8823 9.41867 99.1383 9.22667 99.405 8.992C99.6717 8.74667 99.9437 8.47467 100.221 8.176C100.498 7.87733 100.776 7.57867 101.053 7.28C101.277 7.03467 101.501 6.75733 101.725 6.448C101.949 6.128 102.189 5.78133 102.445 5.408C102.712 5.03467 103 4.624 103.309 4.176C103.629 3.728 103.981 3.248 104.365 2.736C104.44 2.65067 104.541 2.58133 104.669 2.528C104.808 2.47467 104.946 2.44267 105.085 2.432C105.234 2.41067 105.378 2.416 105.517 2.448C105.656 2.46933 105.762 2.512 105.837 2.576C105.762 2.72533 105.597 2.99733 105.341 3.392C105.085 3.776 104.797 4.224 104.477 4.736C104.168 5.23733 103.853 5.77067 103.533 6.336C103.224 6.90133 102.968 7.42933 102.765 7.92C102.573 8.4 102.466 8.816 102.445 9.168C102.424 9.50933 102.552 9.71733 102.829 9.792C103.234 9.73867 103.64 9.536 104.045 9.184C104.45 8.832 104.861 8.39467 105.277 7.872C105.693 7.33867 106.114 6.75733 106.541 6.128C106.978 5.488 107.426 4.85867 107.885 4.24C108.344 3.61067 108.813 3.01867 109.293 2.464C109.784 1.90933 110.29 1.45067 110.813 1.088C111.144 0.864 111.464 0.704 111.773 0.608C112.082 0.501333 112.376 0.442666 112.653 0.431999C112.941 0.421333 113.208 0.453333 113.453 0.528C113.698 0.592 113.928 0.682666 114.141 0.799999C113.426 1.17333 112.744 1.67467 112.093 2.304C111.442 2.93333 110.808 3.61067 110.189 4.336C109.57 5.05067 108.962 5.776 108.365 6.512C107.768 7.248 107.16 7.92 106.541 8.528C105.933 9.12533 105.309 9.62133 104.669 10.016C104.04 10.4107 103.378 10.6187 102.685 10.64ZM112.552 3.104C112.68 2.93333 112.867 2.816 113.112 2.752C113.358 2.67733 113.576 2.68267 113.768 2.768C113.971 2.85333 114.088 2.98667 114.12 3.168C114.152 3.34933 114.094 3.52533 113.944 3.696C113.795 3.87733 113.598 4.00533 113.352 4.08C113.118 4.144 112.904 4.13333 112.712 4.048C112.51 3.96267 112.392 3.82933 112.36 3.648C112.339 3.46667 112.403 3.28533 112.552 3.104ZM109.4 9.296C109.475 8.93333 109.582 8.56 109.72 8.176C109.87 7.78133 110.035 7.392 110.216 7.008C110.398 6.624 110.595 6.24 110.808 5.856C111.022 5.472 111.235 5.104 111.448 4.752C111.544 4.60267 111.678 4.50133 111.848 4.448C112.03 4.39467 112.2 4.37333 112.36 4.384C112.531 4.39467 112.675 4.42667 112.792 4.48C112.91 4.52267 112.958 4.57067 112.936 4.624L111.176 8.48C111.027 8.84267 111.006 9.01867 111.112 9.008C111.219 8.98667 111.406 8.85867 111.672 8.624C111.939 8.37867 112.254 8.05867 112.616 7.664C112.99 7.26933 113.368 6.86933 113.752 6.464C113.752 6.47467 113.763 6.50667 113.784 6.56C113.816 6.60267 113.838 6.66133 113.848 6.736C113.859 6.81067 113.848 6.90133 113.816 7.008C113.795 7.104 113.726 7.21067 113.608 7.328C113.299 7.63733 113.032 7.91467 112.808 8.16C112.584 8.39467 112.366 8.608 112.152 8.8C111.95 8.992 111.742 9.168 111.528 9.328C111.315 9.488 111.07 9.65333 110.792 9.824C110.643 9.92 110.478 9.97867 110.296 10C110.126 10.0107 109.966 9.98933 109.816 9.936C109.678 9.88267 109.566 9.80267 109.48 9.696C109.395 9.58933 109.368 9.456 109.4 9.296ZM115.488 9.872C115.328 9.94667 115.115 10 114.848 10.032C114.592 10.0747 114.331 10.0693 114.064 10.016C113.797 9.97333 113.547 9.872 113.312 9.712C113.088 9.54133 112.939 9.28533 112.864 8.944C112.8 8.64533 112.811 8.31467 112.896 7.952C112.992 7.58933 113.141 7.232 113.344 6.88C113.547 6.51733 113.797 6.176 114.096 5.856C114.405 5.52533 114.747 5.24267 115.12 5.008C115.493 4.76267 115.888 4.58133 116.304 4.464C116.731 4.34667 117.168 4.31467 117.616 4.368C117.84 4.4 118.016 4.45333 118.144 4.528C118.272 4.60267 118.368 4.68267 118.432 4.768C118.496 4.85333 118.539 4.944 118.56 5.04C118.581 5.12533 118.592 5.2 118.592 5.264C118.592 5.456 118.544 5.63733 118.448 5.808C118.352 5.97867 118.224 6.13867 118.064 6.288C117.904 6.42667 117.723 6.544 117.52 6.64C117.328 6.72533 117.136 6.784 116.944 6.816C116.752 6.83733 116.571 6.82667 116.4 6.784C116.229 6.73067 116.096 6.624 116 6.464C116.16 6.432 116.32 6.37333 116.48 6.288C116.64 6.192 116.784 6.08533 116.912 5.968C117.051 5.84 117.163 5.70667 117.248 5.568C117.333 5.41867 117.381 5.27467 117.392 5.136C117.392 5.09333 117.392 5.04533 117.392 4.992C117.403 4.93867 117.392 4.89067 117.36 4.848C117.339 4.80533 117.301 4.77867 117.248 4.768C117.195 4.74667 117.115 4.752 117.008 4.784C116.816 4.83733 116.613 4.94933 116.4 5.12C116.187 5.28 115.979 5.47733 115.776 5.712C115.584 5.94667 115.397 6.20267 115.216 6.48C115.045 6.75733 114.891 7.03467 114.752 7.312C114.624 7.58933 114.528 7.856 114.464 8.112C114.4 8.368 114.379 8.58667 114.4 8.768C114.432 9.03467 114.533 9.21067 114.704 9.296C114.875 9.37067 115.088 9.38133 115.344 9.328C115.6 9.264 115.888 9.14133 116.208 8.96C116.528 8.768 116.848 8.544 117.168 8.288C117.477 8.05333 117.781 7.77067 118.08 7.44C118.389 7.10933 118.699 6.784 119.008 6.464C119.008 6.47467 119.019 6.50667 119.04 6.56C119.072 6.60267 119.093 6.66133 119.104 6.736C119.115 6.81067 119.104 6.90133 119.072 7.008C119.051 7.104 118.981 7.21067 118.864 7.328C118.267 7.95733 117.707 8.47467 117.184 8.88C116.672 9.27467 116.107 9.60533 115.488 9.872ZM120.098 7.2C120.588 6.66667 121.004 6.21867 121.346 5.856C121.687 5.49333 121.975 5.2 122.21 4.976C122.455 4.752 122.658 4.59733 122.818 4.512C122.988 4.416 123.138 4.368 123.266 4.368C123.447 4.368 123.596 4.416 123.714 4.512C123.831 4.59733 123.895 4.73067 123.906 4.912C123.916 5.06133 123.89 5.232 123.826 5.424C123.772 5.60533 123.687 5.83467 123.57 6.112C123.452 6.38933 123.303 6.72 123.122 7.104C122.94 7.488 122.732 7.94667 122.498 8.48C122.348 8.84267 122.327 9.01867 122.434 9.008C122.54 8.98667 122.722 8.85867 122.978 8.624C123.244 8.37867 123.564 8.05867 123.938 7.664C124.322 7.26933 124.706 6.86933 125.09 6.464C125.09 6.47467 125.1 6.50667 125.122 6.56C125.154 6.60267 125.175 6.66133 125.186 6.736C125.196 6.81067 125.186 6.90133 125.154 7.008C125.132 7.104 125.063 7.21067 124.946 7.328C124.636 7.63733 124.364 7.91467 124.13 8.16C123.906 8.39467 123.687 8.608 123.474 8.8C123.26 8.992 123.047 9.168 122.834 9.328C122.62 9.488 122.38 9.65333 122.114 9.824C121.964 9.92 121.799 9.97867 121.618 10C121.436 10.0107 121.271 9.98933 121.122 9.936C120.972 9.88267 120.855 9.80267 120.77 9.696C120.684 9.58933 120.658 9.456 120.69 9.296C120.775 8.89067 120.914 8.47467 121.106 8.048C121.298 7.62133 121.527 7.14133 121.794 6.608C121.868 6.448 121.874 6.34667 121.81 6.304C121.746 6.26133 121.639 6.31467 121.49 6.464C121.34 6.592 121.175 6.74667 120.994 6.928C120.823 7.09867 120.647 7.28 120.466 7.472C120.284 7.65333 120.108 7.83467 119.938 8.016C119.778 8.19733 119.644 8.352 119.538 8.48L119.41 8.752C119.292 9.04 119.18 9.26933 119.074 9.44C118.967 9.6 118.86 9.72267 118.754 9.808C118.647 9.89333 118.53 9.94667 118.402 9.968C118.284 9.98933 118.156 10 118.018 10C117.836 9.98933 117.697 9.92533 117.601 9.808C117.505 9.69067 117.5 9.52533 117.585 9.312C117.66 9.10933 117.772 8.832 117.921 8.48C118.071 8.11733 118.242 7.71733 118.434 7.28C118.626 6.832 118.828 6.368 119.042 5.888C119.266 5.408 119.484 4.944 119.698 4.496C119.922 4.048 120.13 3.632 120.322 3.248C120.524 2.864 120.7 2.54933 120.85 2.304C120.935 2.15467 121.063 2.05333 121.234 2C121.404 1.94667 121.57 1.92533 121.73 1.936C121.9 1.936 122.044 1.96267 122.161 2.016C122.279 2.05867 122.327 2.10667 122.306 2.16L120.098 7.2ZM126.8 9.872C126.64 9.94667 126.427 10 126.16 10.032C125.904 10.0747 125.643 10.0693 125.376 10.016C125.11 9.97333 124.859 9.872 124.624 9.712C124.4 9.54133 124.251 9.28533 124.176 8.944C124.112 8.64533 124.123 8.31467 124.208 7.952C124.304 7.58933 124.454 7.232 124.656 6.88C124.859 6.51733 125.11 6.176 125.408 5.856C125.718 5.52533 126.059 5.24267 126.432 5.008C126.806 4.76267 127.2 4.58133 127.616 4.464C128.043 4.34667 128.48 4.31467 128.928 4.368C129.152 4.4 129.328 4.45333 129.456 4.528C129.584 4.60267 129.68 4.68267 129.744 4.768C129.808 4.85333 129.851 4.944 129.872 5.04C129.894 5.12533 129.904 5.2 129.904 5.264C129.904 5.60533 129.76 5.94133 129.472 6.272C129.195 6.592 128.848 6.87467 128.432 7.12C128.027 7.35467 127.595 7.53067 127.136 7.648C126.678 7.75467 126.272 7.76 125.92 7.664C125.75 8.12267 125.68 8.49067 125.712 8.768C125.744 9.03467 125.846 9.21067 126.016 9.296C126.187 9.37067 126.4 9.38133 126.656 9.328C126.912 9.264 127.2 9.14133 127.52 8.96C127.84 8.768 128.16 8.544 128.48 8.288C128.79 8.05333 129.094 7.77067 129.392 7.44C129.702 7.10933 130.011 6.784 130.32 6.464C130.32 6.47467 130.331 6.50667 130.352 6.56C130.384 6.60267 130.406 6.66133 130.416 6.736C130.427 6.81067 130.416 6.90133 130.384 7.008C130.363 7.104 130.294 7.21067 130.176 7.328C129.579 7.95733 129.019 8.47467 128.496 8.88C127.984 9.27467 127.419 9.60533 126.8 9.872ZM128.32 4.784C128.128 4.83733 127.926 4.94933 127.712 5.12C127.51 5.28 127.307 5.47733 127.104 5.712C126.902 5.936 126.71 6.18667 126.528 6.464C126.358 6.74133 126.208 7.01867 126.08 7.296C126.368 7.21067 126.662 7.088 126.96 6.928C127.27 6.75733 127.552 6.57067 127.808 6.368C128.064 6.16533 128.272 5.95733 128.432 5.744C128.603 5.53067 128.694 5.328 128.704 5.136C128.704 5.09333 128.704 5.04533 128.704 4.992C128.715 4.93867 128.704 4.89067 128.672 4.848C128.651 4.80533 128.614 4.77867 128.56 4.768C128.507 4.74667 128.427 4.752 128.32 4.784ZM131.554 6.768L132.786 5.312C132.807 5.28 132.866 5.21067 132.962 5.104C133.069 4.99733 133.191 4.89067 133.33 4.784C133.479 4.66667 133.639 4.56533 133.81 4.48C133.991 4.384 134.162 4.34133 134.322 4.352C134.546 4.36267 134.695 4.416 134.77 4.512C134.845 4.59733 134.887 4.69333 134.898 4.8C134.909 4.928 134.866 5.10933 134.77 5.344C134.685 5.568 134.583 5.81333 134.466 6.08C134.349 6.34667 134.226 6.608 134.098 6.864C133.981 7.12 133.895 7.33333 133.842 7.504C133.693 7.86667 133.661 8.08 133.746 8.144C133.831 8.208 133.986 8.176 134.21 8.048C134.434 7.90933 134.706 7.70133 135.026 7.424C135.357 7.136 135.687 6.816 136.018 6.464C136.018 6.47467 136.029 6.50667 136.05 6.56C136.082 6.60267 136.098 6.66133 136.098 6.736C136.109 6.81067 136.098 6.90133 136.066 7.008C136.045 7.104 135.981 7.21067 135.874 7.328C135.437 7.776 134.994 8.144 134.546 8.432C134.109 8.72 133.618 8.864 133.074 8.864C132.818 8.864 132.594 8.80533 132.402 8.688C132.21 8.56 132.119 8.35733 132.13 8.08C132.13 8.00533 132.157 7.89867 132.21 7.76C132.263 7.62133 132.327 7.472 132.402 7.312C132.477 7.14133 132.551 6.97067 132.626 6.8C132.711 6.62933 132.781 6.48 132.834 6.352C132.93 6.16 132.957 6.05867 132.914 6.048C132.871 6.03733 132.802 6.07467 132.706 6.16C132.61 6.23467 132.503 6.33067 132.386 6.448C132.279 6.56533 132.205 6.656 132.162 6.72C132.087 6.82667 131.997 6.94933 131.89 7.088C131.783 7.216 131.671 7.35467 131.554 7.504C131.437 7.64267 131.319 7.78133 131.202 7.92C131.095 8.05867 130.994 8.192 130.898 8.32L130.722 8.752C130.605 9.04 130.493 9.26933 130.386 9.44C130.279 9.6 130.173 9.72267 130.066 9.808C129.959 9.89333 129.842 9.94667 129.714 9.968C129.597 9.98933 129.469 10 129.33 10C129.149 9.98933 129.01 9.92533 128.914 9.808C128.818 9.69067 128.813 9.52533 128.898 9.312C129.005 9.00267 129.133 8.66133 129.282 8.288C129.442 7.904 129.613 7.50933 129.794 7.104C129.975 6.69867 130.167 6.29333 130.37 5.888C130.583 5.472 130.802 5.08267 131.026 4.72C131.111 4.57067 131.239 4.46933 131.41 4.416C131.581 4.352 131.746 4.32533 131.906 4.336C132.077 4.34667 132.221 4.37867 132.338 4.432C132.455 4.47467 132.503 4.528 132.482 4.592L131.554 6.768Z" fill="#F2F5F8"/>
</svg>
